<svg xmlns="http://www.w3.org/2000/svg" version="1" viewBox="0 0 643 643"><path d="M147 139l-47 62h364v66a31 31 0 0 1-25 26H269l12-59h-80l-56 275h78l32-155h43l-4 14a15 15 0 0 0 15 19h4a15 15 0 0 0 15-11l7-22h36l-3 13a16 16 0 0 0 15 20h1a16 16 0 0 0 15-11l7-22h51a106 106 0 0 0 29-4c19-5 48-18 56-46a51 51 0 0 0 2-14v-79a63 63 0 0 0-29-53c-11-7-27-13-50-15h-17l4-16a15 15 0 0 0-15-19h-6a15 15 0 0 0-14 11l-7 22h-35l4-16a15 15 0 0 0-15-18h-4a15 15 0 0 0-14 11l-6 22zm481 183a307 307 0 0 1-306 306A307 307 0 0 1 15 322 307 307 0 0 1 322 15a307 307 0 0 1 306 307z"/></svg>
